<svg xmlns="http://www.w3.org/2000/svg" width="256" height="256" viewBox="0 0 100 100"><rect width="100" height="100" rx="50" fill="#ffe600"></rect><path fill="#005099" d="M31.57 74.62L31.57 74.62Q29.02 72.69 27.40 69.79Q25.77 66.89 24.85 63.63Q23.93 60.38 23.62 56.91Q23.31 53.44 23.40 50.27L23.40 50.27Q24.19 47.90 25.33 45.92Q26.47 43.95 27.88 42.14Q29.29 40.34 30.83 38.72Q32.36 37.09 33.86 35.42L33.86 35.42Q34.38 35.42 34.82 35.68L34.82 35.68Q35.18 34.72 35.88 34.01Q36.58 33.31 37.37 32.74Q38.16 32.17 38.96 31.60Q39.75 31.03 40.27 30.24L40.27 30.24Q42.47 29.71 44.18 28.74Q45.90 27.77 47.48 26.63Q49.06 25.49 50.73 24.52Q52.40 23.56 54.60 23.03L54.60 23.03Q55.39 22.15 56.58 21.53Q57.76 20.92 58.95 20.39Q60.14 19.86 61.24 19.25Q62.33 18.63 63.04 17.58L63.04 17.58Q63.56 18.28 64.53 18.06Q65.50 17.84 66.29 17.58L66.29 17.58Q66.82 17.49 67.17 17.76Q67.52 18.02 67.83 18.33Q68.13 18.63 68.35 18.72Q68.57 18.81 68.84 18.19L68.84 18.19Q69.54 18.28 69.23 18.81Q68.93 19.34 68.84 19.51L68.84 19.51Q69.72 19.34 70.29 19.82Q70.86 20.30 72.09 20.48L72.09 20.48Q72.53 20.92 72.35 21.18Q72.18 21.45 72.09 22.06L72.09 22.06Q75.25 23.03 76.13 25.09Q77.01 27.16 76.31 29.40Q75.61 31.64 73.72 33.53Q71.83 35.42 69.54 36.04L69.54 36.04Q66.82 36.74 64.49 37.44Q62.16 38.15 60.00 39.02Q57.85 39.90 55.96 41.09Q54.07 42.28 52.67 43.86L52.67 43.86Q50.21 44.56 48.23 45.79Q46.25 47.02 44.54 48.52Q42.82 50.01 41.24 51.64Q39.66 53.26 38.08 54.84L38.08 54.84Q38.08 56.34 37.55 57.13Q37.02 57.92 36.41 58.71L36.41 58.71Q36.58 60.38 37.15 61.57Q37.72 62.76 38.34 63.99L38.34 63.99Q45.37 66.09 53.24 66.58Q61.10 67.06 68.84 67.15L68.84 67.15Q69.63 68.20 70.64 69.13Q71.65 70.05 72.49 71.02Q73.32 71.98 73.80 73.26Q74.29 74.53 74.02 76.29L74.02 76.29Q72.53 77.78 70.77 79.15Q69.01 80.51 67.26 81.83L67.26 81.83Q66.46 81.92 65.37 81.83Q64.27 81.74 63.08 81.74Q61.89 81.74 60.71 81.87Q59.52 82.00 58.47 82.44L58.47 82.44Q52.93 82.27 47.13 81.08Q41.33 79.89 36.41 78.22L36.41 78.22Q35.44 77.08 34.38 76.07Q33.33 75.06 31.57 74.62Z"></path></svg>